<svg xmlns="http://www.w3.org/2000/svg" xmlns:xlink="http://www.w3.org/1999/xlink" viewBox="0 0 425.2 425.2"><defs><path id="a" d="M0 0h425.2v425.2H0z"/></defs><clipPath id="b"><use xlink:href="#a" overflow="visible"/></clipPath><path clip-path="url(#b)" fill="none" stroke="#000" stroke-width="3" d="M0 0h425.2v425.2H0z"/><g><path d="M314.85 267.55a4.57 4.57 0 004.56 4.56c2.56 0 4.63-2.05 4.63-4.56 0-2.6-2.04-4.63-4.63-4.63-2.51-.01-4.56 2.07-4.56 4.63m-59.84 2.61c-.04.28-.04.66.18.92.21.24.55.29.8.29h4.66c.41 0 .87-.38.9-.65l2.77-30.96h.87l15.53 26.91c.14.28.46.57.87.57h1.29c.39 0 .66-.18.88-.59l1.74-3.02.71-1.23c.27-.47.2-1.18-.19-1.8l-23.08-38.81-.01-.04c-.08-.24-.55-.52-.85-.52h-1.15c-.38 0-.81.37-.9.73l-5.02 48.2zm-36.77-42.02h13.16c4.95 0 9.14 4.09 9.14 8.92 0 5.03-4.18 9.28-9.14 9.28h-13.16v-18.2zm-6.76-5.21v47.48c0 .47.37.97.98.97h4.66c.5 0 .98-.47.98-.97v-18.68h11.46l9.65 19.22c.07.14.36.43.8.43h5.59c.4 0 .72-.16.89-.45.18-.3.18-.71-.01-1.06l-10.03-18.6.4-.16c6.4-2.57 10.37-8.01 10.37-14.2 0-8.25-6.84-14.96-15.25-14.96h-19.51c-.61.01-.98.51-.98.98m-92.76-61.69v-4.02c0-.47-.37-.98-.97-.98H86.91c-.6 0-.98.51-.98.98v4.02c0 .47.37.98.98.98h12.08v42.49c0 .5.47.97.97.97h4.73c.5 0 .98-.47.98-.97v-42.49h12.08c.6 0 .97-.51.97-.98m29.18 60.72h-28.69c-.6 0-.97.51-.97.97v47.48c0 .47.37.97.97.97h4.66c.5 0 .97-.47.97-.97v-19.25h18.57c.5 0 .98-.47.98-.98v-3.95c0-.5-.47-.98-.98-.98h-18.57V227.9h23.05c.6 0 .98-.51.98-.97v-4.02c0-.25-.1-.5-.28-.68a.975.975 0 00-.69-.27m19.02-17.25v-47.48c0-.5-.47-.98-.97-.98h-4.74c-.6 0-.97.51-.97.98v20.4h-27.03v-20.4c0-.47-.37-.98-.97-.98h-4.73c-.5 0-.98.47-.98.98v47.48c0 .5.47.97.98.97h4.73c.6 0 .97-.51.97-.97v-21.12h27.03v21.12c0 .47.37.97.98.97h4.73c.5 0 .97-.47.97-.97m30 42.03c0 10.46-8.54 18.97-19.04 18.97-10.46 0-18.97-8.51-18.97-18.97 0-10.36 8.69-19.11 18.97-19.11 10.5.01 19.04 8.58 19.04 19.11m-19.03-25.5c-13.98 0-25.36 11.44-25.36 25.51 0 14.22 11.14 25.36 25.36 25.36 14.26 0 25.43-11.14 25.43-25.36 0-14.07-11.41-25.51-25.43-25.51m7.29-16.53v-47.48c0-.5-.47-.98-.97-.98h-4.74c-.5 0-.97.47-.97.98v47.48c0 .5.47.97.98.97h4.73c.49 0 .97-.47.97-.97m40.09-9.83l-23.08-38.81-.01-.04c-.08-.23-.55-.52-.85-.52h-1.15c-.38 0-.81.36-.9.73l-5.02 48.22c-.04.28-.04.66.18.92.21.24.55.29.8.29h4.66c.41 0 .87-.38.91-.65l2.77-30.96h.87l15.53 26.91c.14.28.46.57.87.57h1.29c.39 0 .66-.18.88-.59l1.74-3.02.71-1.23c.26-.49.19-1.2-.2-1.82m23.33 10.49c.2-.25.18-.62.11-.93l-4.93-48.15c-.1-.42-.53-.78-.92-.78h-1.15c-.34 0-.76.26-.85.52l-.01.04-15.67 26.5c-.17.33-.19.96.18 1.56.32.52 2.89 4.81 3.27 5.48.04.07.11.15.29.15.27 0 .56-.17.62-.27l6.68-11.64 2.25-3.81h.79l2.91 30.92c.11.33.53.69.98.69h4.66c.25.01.6-.04.79-.28m36.69-15.98h-19.13l9.1-20.43h.86l9.17 20.43zm13.59 15.89c.16-.25.17-.58.02-.91l-21.87-48.26c-.15-.3-.65-.58-.87-.58h-.72c-.22 0-.72.28-.87.56l-22.02 48.28c-.15.32-.14.65.02.91s.47.4.85.4h4.52c.74 0 1.16-.53 1.29-.84.72-1.66 1.46-3.29 2.2-4.93.73-1.63 1.46-3.25 2.18-4.89l.1-.23h23.96l4.55 10.06c.26.58.67.84 1.29.84h4.52c.38-.01.69-.16.85-.41m10.59 64.87L304.54 222c-.1-.42-.53-.78-.92-.78h-1.15c-.34 0-.76.26-.85.52l-.01.04-15.67 26.5c-.17.33-.19.96.18 1.56.31.52 2.89 4.81 3.27 5.49.04.07.11.15.29.15.27 0 .56-.17.62-.27l6.68-11.64 2.25-3.81h.79l2.91 30.92c.11.33.53.69.98.69h4.66c.25 0 .6-.05.79-.29.2-.25.18-.62.11-.93m25.67-98.8c0 5.03-4.19 9.28-9.14 9.28h-13.16v-18.21H326c4.96.01 9.14 4.1 9.14 8.93m6.69-.14c0-8.25-6.84-14.96-15.25-14.96h-19.51c-.6 0-.97.51-.97.98v47.48c0 .47.37.97.98.97h4.66c.5 0 .98-.47.98-.97v-18.68h11.46l9.65 19.22c.07.14.36.43.8.43h5.6c.4 0 .72-.16.89-.45.18-.3.17-.71-.01-1.06l-10.03-18.6.4-.16c6.37-2.57 10.35-8.01 10.35-14.2"/></g></svg>