<svg xmlns="http://www.w3.org/2000/svg" xmlns:xlink="http://www.w3.org/1999/xlink" viewBox="0 0 131.634 131.634">
  <defs>
    <style>
      .cls-1, .cls-3 {
        fill: none;
      }

      .cls-1, .cls-4 {
        stroke: #707070;
      }

      .cls-1 {
        stroke-width: 1px;
      }

      .cls-2 {
        clip-path: url(#clip-path);
      }

      .cls-3 {
        stroke: #2b2e34;
      }

      .cls-3, .cls-4 {
        stroke-width: 1px;
      }

      .cls-4 {
        fill: #2b2e34;
      }
    </style>
    <clipPath id="clip-path">
      <path id="Path_41" data-name="Path 41" class="cls-1" d="M9.936-69.465H141.57V-201.1H9.936Z" transform="translate(-9.936 201.099)"/>
    </clipPath>
  </defs>
  <g id="Group_62" data-name="Group 62" class="cls-2">
    <g id="Group_60" data-name="Group 60" transform="translate(0.002 0.003)">
      <path id="Path_39" data-name="Path 39" class="cls-3" d="M0,107.62H131.634V-24.014H0Z" transform="translate(0 24.014)"/>
    </g>
    <g id="Group_61" data-name="Group 61" transform="translate(26.605 48.145)">
      <path id="Path_40" data-name="Path 40" class="cls-4" d="M64.767,3.975a4.681,4.681,0,0,0-4.72-4.632H54.007a.3.3,0,0,0-.3.3v14.7a.3.3,0,0,0,.3.3h1.442a.316.316,0,0,0,.3-.3V8.563H59.3l2.987,5.947a.3.3,0,0,0,.252.137h1.732a.31.31,0,0,0,.274-.137.335.335,0,0,0-.005-.329l-3.1-5.761.121-.049a4.8,4.8,0,0,0,3.212-4.4M62.7,4.019a2.893,2.893,0,0,1-2.834,2.872H55.794V1.256h4.073A2.838,2.838,0,0,1,62.7,4.019M54.753,34.606,53.223,19.7a.331.331,0,0,0-.28-.247h-.356a.3.3,0,0,0-.263.164l-.005.011-4.851,8.206a.512.512,0,0,0,.055.482c.1.159.893,1.486,1.009,1.7a.1.1,0,0,0,.093.044.273.273,0,0,0,.192-.082l2.067-3.607.7-1.179h.247l.9,9.576a.349.349,0,0,0,.3.214h1.447a.3.3,0,0,0,.241-.093.345.345,0,0,0,.038-.285M51.475,14.522a.3.3,0,0,0,.005-.28L44.7-.7a.4.4,0,0,0-.269-.181h-.225a.406.406,0,0,0-.263.175L37.129,14.242a.281.281,0,0,0,.005.28.3.3,0,0,0,.263.126h1.4a.433.433,0,0,0,.4-.263c.225-.51.455-1.02.68-1.524s.455-1.009.674-1.518l.033-.071H48l1.409,3.114a.4.4,0,0,0,.4.263h1.4a.3.3,0,0,0,.263-.126M47.265,9.6h-5.92l2.812-6.32h.269Zm-11.358,4.95a.344.344,0,0,0,.033-.285L34.416-.64a.331.331,0,0,0-.285-.247h-.356a.311.311,0,0,0-.263.164l-.005.011L28.655,7.494a.546.546,0,0,0,.055.482c.1.159.9,1.485,1.014,1.7.011.022.033.044.093.044a.273.273,0,0,0,.192-.082l2.067-3.607.7-1.173h.241l.9,9.571a.34.34,0,0,0,.3.214H35.66a.306.306,0,0,0,.247-.093M28.682,11.3,21.54-.712l-.005-.011a.344.344,0,0,0-.263-.164h-.356a.323.323,0,0,0-.28.23L19.084,14.269a.342.342,0,0,0,.055.285.335.335,0,0,0,.247.088h1.442a.319.319,0,0,0,.28-.2l.861-9.582h.269l4.807,8.326a.311.311,0,0,0,.269.175h.4a.3.3,0,0,0,.274-.181l.537-.937h0l.219-.384a.559.559,0,0,0-.06-.554m-12.41,3.042V-.355a.32.32,0,0,0-.3-.3H14.5a.32.32,0,0,0-.3.3v14.7a.32.32,0,0,0,.3.3h1.469a.32.32,0,0,0,.3-.3m-2.258,5.114a7.884,7.884,0,0,0-7.85,7.9,7.766,7.766,0,0,0,7.85,7.85,7.779,7.779,0,0,0,7.877-7.85,7.9,7.9,0,0,0-7.877-7.9m5.893,7.9a5.882,5.882,0,0,1-11.763,0,5.97,5.97,0,0,1,5.871-5.915,5.909,5.909,0,0,1,5.893,5.915M10.621,14.346V-.355a.32.32,0,0,0-.3-.3H8.856a.3.3,0,0,0-.3.3V5.959H.184V-.355a.3.3,0,0,0-.3-.3H-1.581a.316.316,0,0,0-.3.3v14.7a.316.316,0,0,0,.3.3H-.118a.3.3,0,0,0,.3-.3V7.807h8.37v6.539a.3.3,0,0,0,.3.3h1.464a.32.32,0,0,0,.3-.3M4.733,19.685H-4.152a.3.3,0,0,0-.3.3v14.7a.3.3,0,0,0,.3.3h1.447a.32.32,0,0,0,.3-.3V28.724H3.341a.317.317,0,0,0,.307-.3V27.206a.317.317,0,0,0-.307-.3H-2.4V21.533H4.733a.3.3,0,0,0,.3-.3V19.987a.323.323,0,0,0-.088-.214.3.3,0,0,0-.214-.088M-4.3.889V-.355a.3.3,0,0,0-.3-.3h-9.549a.3.3,0,0,0-.3.3V.889a.3.3,0,0,0,.3.3h3.738V14.346a.32.32,0,0,0,.3.3h1.464a.321.321,0,0,0,.307-.3V1.191H-4.6a.3.3,0,0,0,.3-.3m28.718,19.1v14.7a.3.3,0,0,0,.3.3h1.442a.32.32,0,0,0,.3-.3V28.905h3.547L33,34.853a.288.288,0,0,0,.247.137h1.732a.305.305,0,0,0,.28-.143.339.339,0,0,0-.005-.323l-3.108-5.761.126-.049a4.8,4.8,0,0,0,3.212-4.4,4.685,4.685,0,0,0-4.725-4.632H24.719a.3.3,0,0,0-.3.3M26.506,21.6h4.073a2.833,2.833,0,0,1,2.828,2.763,2.888,2.888,0,0,1-2.828,2.872H26.506ZM37.891,34.611a.368.368,0,0,0,.055.28.32.32,0,0,0,.247.093H39.64a.326.326,0,0,0,.28-.2l.855-9.587h.269l4.807,8.332a.311.311,0,0,0,.269.175h.4a.29.29,0,0,0,.274-.181l.537-.937h0l.219-.384a.533.533,0,0,0-.06-.554L40.347,19.63l-.005-.011a.344.344,0,0,0-.263-.164h-.356a.339.339,0,0,0-.28.225ZM56.419,33.8a1.423,1.423,0,1,0,1.409-1.436A1.408,1.408,0,0,0,56.419,33.8" transform="translate(14.452 0.887)"/>
    </g>
  </g>
</svg>
